# Media Information
<pre>
General
Unique ID                                : 203874958102938475029384750293847502938 (0x995F8A2B3C4D5E6F7A8B9C0D1E2F3A4B)
Complete name                            : Ice.Age.The.Meltdown.2006.1080p.BluRay.REMUX.MPEG-2.DTS-HD.MA.5.1-DON.mkv
Format                                   : Matroska
Format version                           : Version 4
File size                                : 18.4 GiB
Duration                                 : 1 h 30 min
Overall bit rate mode                    : Variable
Overall bit rate                         : 29.1 Mb/s
Movie name                               : Ice Age: The Meltdown
Encoded date                             : UTC 2012-05-14 10:22:45
Writing application                      : mkvmerge v5.5.0 ('Heads Will Roll') built on Apr  6 2012 07:59:17
Writing library                          : libebml v1.2.3 + libmatroska v1.3.0

Video
ID                                       : 1
Format                                   : MPEG Video
Format version                           : Version 2
Format profile                           : Main@High
Format settings, BVOP                    : Yes
Format settings, Matrix                  : Custom
Format settings, GOP                     : M=3, N=12
Codec ID                                 : V_MPEG2
Duration                                 : 1 h 30 min
Bit rate mode                            : Variable
Bit rate                                 : 23.5 Mb/s
Maximum bit rate                         : 38.0 Mb/s
Width                                    : 1 920 pixels
Height                                   : 1 080 pixels
Display aspect ratio                     : 16:9
Frame rate mode                          : Constant
Frame rate                               : 23.976 (24000/1001) FPS
Color space                              : YUV
Chroma subsampling                       : 4:2:0
Bit depth                                : 8 bits
Scan type                                : Progressive
Compression mode                         : Lossy
Bits/(Pixel*Frame)                       : 0.473
Stream size                              : 14.8 GiB (81%)
Language                                 : English
Default                                  : Yes
Forced                                   : No

Audio #1
ID                                       : 2
Format                                   : DTS
Format/Info                              : Digital Theater Systems
Format profile                           : MA / Core
Codec ID                                 : A_DTS
Duration                                 : 1 h 30 min
Bit rate mode                            : Variable / Constant
Bit rate                                 : 4 103 kb/s / 1 509 kb/s
Channel(s)                               : 6 channels
Channel positions                        : Front: L C R, Side: L R, LFE
Sampling rate                            : 48.0 kHz
Frame rate                               : 93.750 FPS (512 spf)
Bit depth                                : 24 bits
Compression mode                         : Lossless / Lossy
Stream size                              : 2.59 GiB (14%)
Title                                    : English 5.1 DTS-HD MA
Language                                 : English
Default                                  : Yes
Forced                                   : No

Audio #2
ID                                       : 3
Format                                   : AC-3
Format/Info                              : Audio Coding 3
Codec ID                                 : A_AC3
Duration                                 : 1 h 30 min
Bit rate mode                            : Constant
Bit rate                                 : 448 kb/s
Channel(s)                               : 6 channels
Channel positions                        : Front: L C R, Side: L R, LFE
Sampling rate                            : 48.0 kHz
Bit depth                                : 16 bits
Compression mode                         : Lossy
Stream size                              : 291 MiB (2%)
Title                                    : French 5.1 Dolby Digital
Language                                 : French
Default                                  : No
Forced                                   : No

Audio #3
ID                                       : 4
Format                                   : AC-3
Format/Info                              : Audio Coding 3
Codec ID                                 : A_AC3
Duration                                 : 1 h 30 min
Bit rate mode                            : Constant
Bit rate                                 : 448 kb/s
Channel(s)                               : 6 channels
Channel positions                        : Front: L C R, Side: L R, LFE
Sampling rate                            : 48.0 kHz
Bit depth                                : 16 bits
Compression mode                         : Lossy
Stream size                              : 291 MiB (2%)
Title                                    : Spanish 5.1 Dolby Digital
Language                                 : Spanish
Default                                  : No
Forced                                   : No

Text #1
ID                                       : 5
Format                                   : PGS
Codec ID                                 : S_HDMV/PGS
Codec ID/Info                            : Picture based subtitle format used on BDs
Duration                                 : 1 h 25 min
Bit rate                                 : 34.2 kb/s
Count of elements                        : 2148
Stream size                              : 20.8 MiB (0%)
Title                                    : English
Language                                 : English
Default                                  : No
Forced                                   : No

Text #2
ID                                       : 6
Format                                   : PGS
Codec ID                                 : S_HDMV/PGS
Codec ID/Info                            : Picture based subtitle format used on BDs
Duration                                 : 1 h 24 min
Bit rate                                 : 28.5 kb/s
Count of elements                        : 1954
Stream size                              : 17.1 MiB (0%)
Title                                    : Spanish
Language                                 : Spanish
Default                                  : No
Forced                                   : No
</pre>